Coordinates
version=1
nRows=30
nColumns=33
inDegrees=yes

Units are S.I. units (second, meters, Newtons, ...)
Angles are in degrees.

endheader
time	ground_thorax_rot_x	ground_thorax_rot_y	ground_thorax_rot_z	ground_thorax_tx	ground_thorax_ty	ground_thorax_tz	clav_prot_r	clav_elev_r	scapula_abduction_r	scapula_elevation_r	scapula_upward_rot_r	scapula_winging_r	shoulder_elv_r	plane_of_elev_r	axial_rot_r	elbow_flexion_r	pro_sup_r	wrist_flex_r	wrist_dev_r	clav_prot_l	clav_elev_l	scapula_abduction_l	scapula_elevation_l	scapula_upward_rot_l	scapula_winging_l	shoulder_elv_l	plane_of_elev_l	axial_rot_l	elbow_flexion_l	pro_sup_l	wrist_flex_l	wrist_dev_l	
2.5100	2.670510	-1.399593	-13.135099	-0.035207	1.048115	0.002058	-11.746744	-7.047924	-9.237555	-2.102404	9.700688	-0.801154	57.493913	-47.502196	59.944485	71.732237	10.577174	17.326781	11.197842	-6.851127	-5.781180	5.522912	-2.865880	-3.998558	-1.428577	59.471133	-53.094646	-46.126680	69.676269	4.119426	-3.427587	-24.999750	
2.5200	2.676887	-1.443622	-13.091011	-0.035573	1.048290	0.002081	-11.745646	-6.961511	-9.177010	-2.071406	9.843519	-0.866966	58.523903	-47.343611	60.631990	73.111361	11.075947	17.289369	11.723002	-6.920596	-5.682881	5.547755	-2.834027	-3.675952	-1.355949	59.853448	-53.292197	-46.782953	70.569539	3.129587	-3.655043	-24.999552	
2.5300	2.673039	-1.477106	-13.038839	-0.035953	1.048464	0.002101	-11.753327	-6.879406	-9.142893	-2.037088	9.963103	-0.924192	59.545934	-47.131321	61.275056	74.483993	11.486866	17.281180	12.253168	-6.976741	-5.567398	5.555470	-2.823058	-3.366016	-1.276466	60.234848	-53.446369	-47.378775	71.503780	2.144988	-3.849932	-24.999198	
2.5400	2.655974	-1.497221	-12.997728	-0.036332	1.048641	0.002116	-11.770356	-6.807516	-9.128704	-2.008647	10.071774	-0.973263	60.512608	-46.871962	61.831512	75.819740	11.804791	17.309565	12.760098	-7.020949	-5.443236	5.546089	-2.824161	-3.066046	-1.192464	60.605646	-53.542159	-47.883084	72.467642	1.196982	-4.014938	-24.998562	
2.5500	2.636766	-1.507134	-12.953860	-0.036707	1.048821	0.002122	-11.788972	-6.729647	-9.105254	-1.982704	10.204891	-1.030076	61.397824	-46.599309	62.300589	77.100378	12.042840	17.387398	13.263584	-7.050063	-5.318538	5.513019	-2.830504	-2.777342	-1.105126	60.939931	-53.591655	-48.277006	73.447296	0.306919	-4.156381	-24.997426	
2.5600	2.613751	-1.506739	-12.928613	-0.037048	1.049022	0.002115	-11.812531	-6.670409	-9.075741	-1.979935	10.358319	-1.083738	62.206682	-46.317792	62.673928	78.326651	12.243241	17.486858	13.751398	-7.079046	-5.216343	5.474295	-2.816201	-2.487784	-1.022966	61.246667	-53.592776	-48.573357	74.431785	-0.563556	-4.292428	-24.995386	
2.5700	2.587039	-1.498057	-12.903284	-0.037378	1.049212	0.002092	-11.828031	-6.594202	-9.011892	-1.975645	10.555468	-1.155491	62.884191	-46.042106	62.942971	79.469703	12.381741	17.624240	14.196032	-7.097281	-5.117204	5.417706	-2.802317	-2.205652	-0.939111	61.501347	-53.537526	-48.741252	75.415489	-1.341274	-4.408032	-24.991747	
2.5800	2.560546	-1.484520	-12.867377	-0.037709	1.049392	0.002054	-11.829810	-6.497369	-8.909170	-1.963500	10.787576	-1.245760	63.451504	-45.771853	63.132112	80.540596	12.461571	17.776547	14.599650	-7.104791	-5.023223	5.345674	-2.789544	-1.938118	-0.855624	61.698355	-53.423413	-48.784967	76.381442	-2.062863	-4.496254	-24.985184	
2.5900	2.537585	-1.468786	-12.809566	-0.038033	1.049567	0.002001	-11.819668	-6.386995	-8.775360	-1.946157	11.043051	-1.348776	63.949180	-45.506622	63.277733	81.556334	12.497067	17.924121	14.982310	-7.106312	-4.942101	5.264592	-2.770267	-1.683791	-0.775801	61.843347	-53.261615	-48.731414	77.322964	-2.764600	-4.558962	-24.973549	
2.6000	2.510834	-1.447836	-12.743854	-0.038342	1.049743	0.001935	-11.803540	-6.284391	-8.631751	-1.933691	11.293469	-1.448923	64.398755	-45.227931	63.384981	82.525269	12.484376	18.037989	15.322176	-7.108278	-4.879159	5.183868	-2.738212	-1.439406	-0.702509	61.951074	-53.040172	-48.594319	78.230627	-3.485853	-4.589848	-24.952373	
2.6100	2.474614	-1.418437	-12.667162	-0.038641	1.049903	0.001859	-11.781561	-6.180695	-8.480056	-1.918387	11.539294	-1.549536	64.776607	-44.935354	63.449866	83.433652	12.404850	18.124425	15.590226	-7.107557	-4.823371	5.098830	-2.702401	-1.201936	-0.631340	62.021839	-52.751812	-48.374215	79.099971	-4.179159	-4.579029	-24.915372	
2.6200	2.438321	-1.384145	-12.582233	-0.038947	1.050038	0.001772	-11.750965	-6.073602	-8.318611	-1.896660	11.775864	-1.650877	65.104468	-44.619165	63.480820	84.292393	12.220207	18.152814	15.814370	-7.095541	-4.771942	5.003365	-2.673125	-0.992326	-0.563737	62.025143	-52.377586	-48.031885	79.908828	-4.952729	-4.489488	-24.846493	
2.6300	2.400219	-1.337971	-12.493638	-0.039252	1.050153	0.001676	-11.718503	-5.971901	-8.158184	-1.876158	12.001787	-1.748086	65.382066	-44.285209	63.473225	85.096971	11.935476	18.133649	15.998578	-7.070715	-4.730746	4.889310	-2.641280	-0.800003	-0.498034	61.972184	-51.923298	-47.589523	80.654287	-5.783396	-4.330660	-24.730367	
2.6400	2.361032	-1.275109	-12.407938	-0.039571	1.050240	0.001572	-11.688758	-5.876056	-8.008673	-1.856419	12.213630	-1.839353	65.603807	-43.923678	63.419538	85.842089	11.511770	18.054038	16.145694	-7.021333	-4.689923	4.741715	-2.619465	-0.634434	-0.429984	61.842260	-51.370102	-47.017141	81.328224	-6.730942	-4.080713	-24.502098	
2.6500	2.312895	-1.185830	-12.329151	-0.039895	1.050303	0.001467	-11.669107	-5.792881	-7.880635	-1.844306	12.413100	-1.921187	65.745641	-43.544957	63.301008	86.510744	10.977150	17.946782	16.230522	-6.946652	-4.654504	4.549928	-2.595865	-0.475416	-0.355309	61.664287	-50.732363	-46.357599	81.937131	-7.687320	-3.780388	-24.149836	
2.6600	2.262330	-1.067003	-12.253420	-0.040245	1.050338	0.001355	-11.663596	-5.723969	-7.785896	-1.838616	12.591206	-1.990097	65.828034	-43.138783	63.122056	87.108220	10.299710	17.787844	16.289187	-6.828220	-4.613734	4.292437	-2.588659	-0.345285	-0.270060	61.411028	-49.996315	-45.576223	82.472682	-8.760009	-3.414766	-23.598189	
2.6700	2.198710	-0.910182	-12.181084	-0.040609	1.050350	0.001246	-11.678446	-5.673857	-7.735363	-1.843158	12.746406	-2.042825	65.820087	-42.713549	62.860093	87.613637	9.502569	17.612087	16.292077	-6.665374	-4.572768	3.957817	-2.585053	-0.221659	-0.169106	61.118390	-49.185930	-44.719241	82.937857	-9.813630	-3.033237	-22.864195	
2.6800	2.125247	-0.725126	-12.111230	-0.040991	1.050343	0.001141	-11.708548	-5.641944	-7.720973	-1.856846	12.877559	-2.080289	65.726958	-42.260879	62.516187	88.023975	8.584901	17.413946	16.245643	-6.461117	-4.534571	3.554320	-2.585246	-0.112660	-0.056100	60.783693	-48.302291	-43.783441	83.316277	-10.856387	-2.637701	-21.957367	
2.6900	2.043564	-0.525591	-12.039042	-0.041379	1.050317	0.001037	-11.744793	-5.623313	-7.729768	-1.874011	12.981408	-2.105158	65.549489	-41.775281	62.086164	88.332442	7.572077	17.202548	16.147557	-6.229301	-4.508821	3.105079	-2.580257	-0.018789	0.061909	60.423829	-47.359374	-42.793215	83.595088	-11.829616	-2.258487	-20.937617	
2.7000	1.963624	-0.330192	-11.962460	-0.041773	1.050280	0.000926	-11.775528	-5.613336	-7.745312	-1.888520	13.052806	-2.120087	65.307827	-41.241151	61.575599	88.541434	6.433547	16.949078	16.025234	-5.977144	-4.500454	2.632204	-2.574140	0.035982	0.174998	60.021853	-46.349791	-41.723238	83.748486	-12.823297	-1.865914	-19.822776	
2.7100	1.888070	-0.154692	-11.883550	-0.042154	1.050240	0.000808	-11.792887	-5.610479	-7.754551	-1.898569	13.091208	-2.126967	65.002756	-40.649719	60.981436	88.641625	5.179208	16.662261	15.878099	-5.724532	-4.525553	2.167392	-2.551128	0.053790	0.272454	59.597170	-45.286173	-40.601517	83.763541	-13.803396	-1.473010	-18.667387	
2.7200	1.822297	-0.014259	-11.813000	-0.042494	1.050229	0.000685	-11.789974	-5.630162	-7.737163	-1.920244	13.105671	-2.123749	64.653040	-40.009986	60.310233	88.636344	3.866703	16.353912	15.713595	-5.496824	-4.614835	1.747505	-2.480793	0.041172	0.338098	59.176259	-44.184452	-39.469293	83.623091	-14.751489	-1.087265	-17.531864	
2.7300	1.765117	0.082663	-11.746089	-0.042800	1.050223	0.000548	-11.758297	-5.656681	-7.684608	-1.937749	13.090893	-2.116540	64.247441	-39.304116	59.558844	88.512363	2.486716	16.013496	15.530646	-5.299540	-4.754238	1.391428	-2.380724	-0.016122	0.369287	58.760426	-43.028567	-38.320590	83.326906	-15.678492	-0.690437	-16.400084	
2.7400	1.715383	0.140373	-11.688394	-0.043070	1.050238	0.000402	-11.700016	-5.699950	-7.596335	-1.961178	13.050968	-2.102375	63.788156	-38.541575	58.730291	88.265016	1.044020	15.643710	15.339702	-5.131418	-4.951205	1.094867	-2.243553	-0.115831	0.364386	58.367217	-41.825423	-37.172647	82.871006	-16.589125	-0.271545	-15.284642	
2.7500	1.670969	0.162819	-11.637087	-0.043318	1.050251	0.000246	-11.616336	-5.751200	-7.478104	-1.981869	12.982680	-2.083549	63.269018	-37.710225	57.831085	87.885738	-0.480130	15.236077	15.143374	-4.984157	-5.187576	0.848989	-2.087693	-0.263298	0.329225	57.991109	-40.564114	-36.016784	82.256284	-17.497918	0.184820	-14.171618	
2.7600	1.632167	0.160373	-11.602492	-0.043517	1.050299	0.000091	-11.515825	-5.842181	-7.331549	-2.031833	12.898075	-2.049777	62.716154	-36.848210	56.876773	87.388896	-1.981784	14.817839	14.945105	-4.861189	-5.488525	0.643614	-1.880221	-0.429881	0.262223	57.657349	-39.279853	-34.903857	81.476989	-18.336860	0.638750	-13.139881	
2.7700	1.593615	0.142061	-11.571918	-0.043707	1.050329	-0.000072	-11.398317	-5.942446	-7.170641	-2.079879	12.782941	-2.008925	62.105096	-35.926833	55.861001	86.760074	-3.504438	14.361781	14.742353	-4.741464	-5.802420	0.457656	-1.673633	-0.631561	0.180834	57.331625	-37.934731	-33.787019	80.539831	-19.144382	1.126472	-12.114792	
2.7800	1.554792	0.123918	-11.548775	-0.043883	1.050355	-0.000233	-11.275570	-6.065591	-7.010306	-2.139985	12.642206	-1.954906	61.443983	-34.967631	54.790421	86.002858	-5.043746	13.876592	14.546169	-4.613313	-6.132857	0.262801	-1.459102	-0.851986	0.092905	57.018605	-36.548493	-32.679507	79.445752	-19.903587	1.641670	-11.122055	
2.7900	1.517089	0.110266	-11.528805	-0.044047	1.050375	-0.000394	-11.149004	-6.209202	-6.854166	-2.209783	12.474908	-1.887972	60.741703	-33.973361	53.675769	85.120497	-6.576132	13.362493	14.356743	-4.472408	-6.471682	0.050672	-1.241750	-1.084863	0.003338	56.708964	-35.128223	-31.584250	78.200359	-20.609623	2.176601	-10.159400	
2.8000	1.481091	0.107349	-11.515781	-0.044192	1.050390	-0.000545	-11.023650	-6.380321	-6.706569	-2.297197	12.286096	-1.805808	60.008447	-32.957666	52.520440	84.121623	-8.059327	12.827410	14.180726	-4.317549	-6.820808	-0.187069	-1.015194	-1.317002	-0.083795	56.407853	-33.686657	-30.519558	76.807566	-21.244211	2.721093	-9.247701	
